<svg width="180" height="180" viewBox="0 0 180 180" fill="none" xmlns="http://www.w3.org/2000/svg">
<path d="M90 0C139.707 0 180 40.2947 180 90.0012V180H90C40.2988 180 0 139.708 0 90.0012C0.00598882 40.2947 40.2988 0 90 0Z" fill="white"/>
<circle cx="90" cy="90" r="20" class="shape circle"/>
<path d="M67.357 85.535C70.257 80.199 74.491 77.531 80.059 77.531C85.627 77.531 89.716 79.242 92.326 82.664C94.994 86.086 96.328 90.61 96.328 96.236V120.944H86.062V96.236C86.062 93.104 85.308 90.755 83.8 89.189C82.292 87.565 80.175 86.753 77.449 86.753C74.723 86.753 72.374 87.971 70.402 90.407C68.488 92.843 67.473 96.497 67.357 101.369V120.944H57.091V61.262H67.357V85.535Z" class="shape letter"/>
<path d="M112.166 78.575H122.432V120.944H112.166V78.575ZM110.948 65.003C110.948 63.147 111.499 61.697 112.601 60.653C113.703 59.551 115.269 59 117.299 59C119.271 59 120.808 59.551 121.91 60.653C123.07 61.697 123.65 63.147 123.65 65.003C123.65 66.859 123.07 68.338 121.91 69.44C120.808 70.484 119.271 71.006 117.299 71.006C115.269 71.006 113.703 70.484 112.601 69.44C111.499 68.338 110.948 66.859 110.948 65.003Z" class="shape letter"/>
</svg>
