<?xml version="1.0" encoding="UTF-8" standalone="no"?><!DOCTYPE svg PUBLIC "-//W3C//DTD SVG 1.1//EN" "http://www.w3.org/Graphics/SVG/1.1/DTD/svg11.dtd"><svg width="100%" height="100%" viewBox="0 0 32 32" version="1.1" xmlns="http://www.w3.org/2000/svg" xmlns:xlink="http://www.w3.org/1999/xlink" xml:space="preserve" xmlns:serif="http://www.serif.com/" style="fill-rule:evenodd;clip-rule:evenodd;stroke-linejoin:round;stroke-miterlimit:2;">
 <style>
    path {
      fill: black;
    }
    @media (prefers-color-scheme: dark) {
      path {
        fill: white;
      }
    }
  </style>
<path d="M18.435,5.503l-8.053,0c1.842,1.068 3.103,3.016 3.198,5.264l-0,12.19c-0,3.036 2.477,5.496 5.534,5.496l4.855,-0l0,-17.454c0,-3.035 -2.478,-5.496 -5.534,-5.496Z" style="fill-rule:nonzero;"/><path d="M1.171,22.957c-0,3.048 2.488,5.518 5.557,5.518c3.069,0 5.557,-2.47 5.557,-5.518l0,-5.517l-5.557,-0c-3.069,-0 -5.557,2.47 -5.557,5.517Z" style="fill-rule:nonzero;"/><path d="M7.134,16.154c2.845,0 5.151,-2.29 5.151,-5.115c0,-2.824 -2.306,-5.114 -5.151,-5.114c-2.845,-0 -5.152,2.29 -5.152,5.114c0,2.825 2.307,5.115 5.152,5.115Z" style="fill-rule:nonzero;"/><path d="M28.042,22.957c-1.534,0 -2.778,1.236 -2.778,2.76l-0,2.759l2.778,-0c1.535,-0 2.779,-1.236 2.779,-2.759c-0,-1.524 -1.244,-2.76 -2.779,-2.76Z" style="fill-rule:nonzero;"/></svg>