<svg width="29" height="24" viewBox="0 0 29 24" fill="none" xmlns="http://www.w3.org/2000/svg">
<path d="M16.8791 1.00806H12.1349H9.01025C10.8104 2.03021 12.0425 3.89477 12.1349 6.0461V17.7135C12.1349 20.6184 14.5562 22.9732 17.5432 22.9732H22.2875V6.26768C22.2875 3.36287 19.8661 1.00806 16.8791 1.00806Z"/>
<path d="M0.0090332 17.7135C0.0090332 20.6304 2.44034 22.9948 5.43954 22.9948C8.43874 22.9948 10.87 20.6304 10.87 17.7135V12.4323H5.43954C2.44034 12.4323 0.0090332 14.7967 0.0090332 17.7135Z"/>
<path d="M5.83609 11.2021C8.61621 11.2021 10.8699 9.01032 10.8699 6.30662C10.8699 3.60292 8.61621 1.41113 5.83609 1.41113C3.05597 1.41113 0.802246 3.60292 0.802246 6.30662C0.802246 9.01032 3.05597 11.2021 5.83609 11.2021Z"/>
<path d="M26.2675 17.7135C24.7678 17.7135 23.5521 18.8958 23.5521 20.3543V22.995H26.2675C27.767 22.995 28.9828 21.8127 28.9828 20.3543C28.9826 18.8958 27.767 17.7135 26.2675 17.7135Z"/>
</svg>
